# xmcd
#
# Track frame offsets:
#	150
#	18716
#	30938
#	51710
#	72539
#	96171
#	117897
#	144104
#	154606
#	173850
#	191227
#	210322
#	227219
#	242072
#	257544
#	278782
#	294456
#	305073
#	318226
#
# Disc length: 4363
#
# Revision: 1
# Processed by: cddbd v1.5.1PL0 Copyright (c) Steve Scherf et al.
# Submitted via: EasyCDDAExtractor 4.5.0.2
# Normalized: r0:TDELIM( - )
#
DISCID=14110913
DTITLE=Maurício Floresta - Minha Seleção
DYEAR=2002
DGENRE=Dance
TTITLE0=Avril Lavigne - Complicated
TTITLE1=Dr. De feat Snoop Dogg - Next Episody
TTITLE2=Orishas - Represent (mix)
TTITLE3=Gorillaz - 19-2000 (mix)
TTITLE4=Rouge - Ragatanga (mix)
TTITLE5=Gilberto Gil and The Wailers - Vamos Fugir
TTITLE6=Chimarruts - Chapéu de Palha
TTITLE7=Bob Marley and The Wailers - I Know a Place
TTITLE8=Cidade Negra - Johnny Be Good
TTITLE9=Maskavo - Asas
TTITLE10=Chimarruts - Iemanjá
TTITLE11=Natiruts - Tenha Os Olhos Sempre Abertos
TTITLE12=Nenhum de Nós - Amanhã ou Depois
TTITLE13=Tihuana - Uma Noite
TTITLE14=Bandaliera - O Mundo Não Vai Acabar
TTITLE15=Kelly Osborne - Papa Don't Preach
TTITLE16=CPM 22 - Tarde de Outurbro
TTITLE17=Bon jovi - Everyday
TTITLE18=Blur - Song2
EXTD=
EXTT0=
EXTT1=
EXTT2=
EXTT3=
EXTT4=
EXTT5=
EXTT6=
EXTT7=
EXTT8=
EXTT9=
EXTT10=
EXTT11=
EXTT12=
EXTT13=
EXTT14=
EXTT15=
EXTT16=
EXTT17=
EXTT18=
PLAYORDER=
